<?xml version="1.0" encoding="UTF-8"?>
<svg xmlns="http://www.w3.org/2000/svg" xmlns:xlink="http://www.w3.org/1999/xlink" width="982px" height="954px" viewBox="0 0 982 954" version="1.1">
<g id="surface1">
<path style=" stroke:none;fill-rule:nonzero;fill:rgb(0%,0%,0%);fill-opacity:1;" d="M 799.375 20.0625 C 800.921875 21.371094 802.460938 22.683594 804 24 C 804.902344 24.683594 804.902344 24.683594 805.820312 25.382812 C 826.84375 41.714844 836.300781 71.773438 839.558594 97.0625 C 842.996094 129.835938 836.523438 162.070312 830 194 C 823.566406 224.34375 823.566406 224.34375 819 255 L 818.609375 258.359375 C 813.675781 309.515625 833.050781 352.773438 857.25 396.4375 C 878.199219 434.300781 897.191406 477.722656 885.355469 521.664062 C 875.574219 554.640625 850.539062 579.503906 821.050781 595.769531 C 819.039062 596.855469 817.023438 597.933594 815 599 C 813.910156 599.582031 812.824219 600.167969 811.703125 600.769531 C 803.394531 604.933594 794.722656 607.992188 785.9375 611 L 782.542969 612.183594 C 755.839844 621.066406 727.75 625.402344 700.101562 630.226562 C 683.769531 633.082031 667.558594 636.140625 651.476562 640.195312 C 650.820312 640.359375 650.160156 640.527344 649.484375 640.695312 C 579.9375 658.339844 535.496094 701.527344 499.351562 761.746094 C 491.914062 774.246094 484.792969 786.914062 477.75 799.640625 C 457.839844 835.585938 437.523438 871.054688 409 901 C 408.136719 901.90625 408.136719 901.90625 407.257812 902.832031 C 382.078125 929.066406 347.21875 952.132812 309.757812 954.175781 C 278.101562 954.730469 278.101562 954.730469 264 950 L 262.003906 949.335938 C 237.492188 940.867188 218.394531 924.601562 206.914062 901.332031 C 195.582031 876.824219 198.964844 848.988281 207.867188 824.363281 C 218.199219 797.476562 236.675781 774.800781 254.546875 752.589844 C 282.089844 718.253906 309.949219 679.207031 305.8125 632.917969 C 304.070312 618.25 298.320312 604.476562 289 593 C 288.019531 591.773438 288.019531 591.773438 287.015625 590.523438 C 263.066406 562.289062 224.996094 553.492188 189.714844 550.222656 C 181.070312 549.515625 172.398438 549.15625 163.734375 548.738281 C 63.925781 543.855469 63.925781 543.855469 29 510 C 28.082031 509.195312 28.082031 509.195312 27.148438 508.371094 C 11 493.660156 1.074219 468.039062 -0.203125 446.570312 C -0.304688 442.8125 -0.328125 439.070312 -0.3125 435.3125 C -0.308594 434.648438 -0.308594 433.988281 -0.304688 433.304688 C -0.253906 423.171875 0.234375 413.789062 3 404 C 3.183594 403.320312 3.367188 402.644531 3.554688 401.945312 C 10.222656 377.714844 23.695312 356.917969 41 339 L 43.542969 336.265625 C 55.300781 323.953125 69.171875 314.25 84 306 C 84.6875 305.609375 85.375 305.214844 86.082031 304.8125 C 137.875 275.320312 198.972656 269.085938 257.089844 262.21875 C 339.496094 252.480469 411.6875 236.457031 476 181 L 478.171875 179.136719 C 486.71875 171.738281 495.003906 164.089844 502.929688 156.035156 C 504.847656 154.152344 506.820312 152.414062 508.875 150.6875 C 512.515625 147.554688 515.671875 144.117188 518.871094 140.535156 C 525.226562 133.519531 532.027344 126.925781 538.765625 120.273438 C 544.765625 114.339844 544.765625 114.339844 550.425781 108.082031 C 554.925781 102.820312 559.867188 97.984375 564.769531 93.101562 C 566.433594 91.441406 568.09375 89.777344 569.75 88.109375 C 574.78125 83.078125 579.835938 78.132812 585.25 73.511719 C 587.558594 71.519531 589.757812 69.421875 591.96875 67.320312 C 598.765625 60.871094 605.847656 54.972656 613.300781 49.300781 C 614.960938 48.03125 616.601562 46.742188 618.242188 45.445312 C 641.671875 26.988281 668.066406 11.746094 697 4 C 697.746094 3.789062 698.492188 3.578125 699.265625 3.363281 C 732.164062 -5.648438 772.117188 -1.488281 799.375 20.0625 M 799.375 20.0625 "/>
<path style=" stroke:none;fill-rule:nonzero;fill:rgb(0%,0%,0%);fill-opacity:1;" d="M 130.597656 632.089844 C 138.230469 638.15625 142.929688 645.785156 146 655 C 147.035156 671.683594 144.195312 684.125 133.121094 697.222656 C 119.328125 711.683594 98.757812 721.792969 78.742188 722.417969 C 70.808594 722.480469 63.4375 721.988281 56 719 L 53.433594 717.96875 C 42.179688 712.882812 34.808594 704.871094 29.96875 693.597656 C 25.992188 682.242188 27.492188 670.949219 32 660 C 40.433594 643.0625 54.960938 633.070312 72.570312 626.710938 C 91.902344 620.589844 113.375 620.175781 130.597656 632.089844 M 963.925781 259.367188 C 973.335938 266.753906 979.503906 278.40625 982 290 C 982.910156 301.269531 983.042969 312.675781 978 323 C 977.585938 323.855469 977.175781 324.710938 976.75 325.589844 C 969.296875 339.328125 957.710938 346.609375 943.5 351.9375 C 930.863281 355.382812 916.355469 353.429688 904.890625 347.351562 C 902.1875 345.675781 899.554688 343.890625 897 342 L 895.199219 340.71875 C 883.886719 332.066406 879.066406 318.574219 877 305 C 875.425781 291.730469 880.207031 277.871094 888.003906 267.277344 C 907.84375 243.746094 939.660156 242.140625 963.925781 259.367188 M 84.625 774.6875 C 91.203125 778.746094 95.765625 784.476562 98.3125 791.75 C 99.964844 799.644531 98.398438 806.710938 94.589844 813.734375 C 91.003906 818.847656 85.902344 822.109375 80 824 C 72.957031 824.679688 65.019531 825.292969 58.777344 821.46875 C 52.628906 816.386719 47.511719 810.925781 46.664062 802.765625 C 46.566406 793.972656 46.949219 787.363281 53.09375 780.746094 C 61.585938 772.835938 73.539062 769.453125 84.625 774.6875 M 84.625 774.6875 "/>
</g>
</svg>
